<svg width="20" height="19" viewBox="0 0 20 19" fill="none" xmlns="http://www.w3.org/2000/svg">
<path fill-rule="evenodd" clip-rule="evenodd" d="M15.7969 2.06897C16.4631 1.80296 17.1707 1.71091 17.7834 1.85445C18.6897 2.06553 19.3047 2.72534 19.5159 3.71043C19.7915 4.99687 19.185 6.47155 17.8079 7.86383C16.723 8.96047 15.2673 9.87287 13.7303 10.4362C13.0937 11.3874 12.2782 12.1538 11.2438 12.6197C11.3944 13.2032 11.9236 15.2049 13.203 16.2393H6.95466C8.23375 15.2047 8.76311 13.2032 8.91394 12.6197C7.87953 12.1538 7.06428 11.3876 6.42737 10.4365C4.89026 9.87303 3.43471 8.96063 2.34977 7.86399C0.972885 6.47179 0.366192 4.99695 0.641775 3.71059C0.852706 2.72535 1.46808 2.06554 2.37436 1.85445C2.98724 1.71091 3.69469 1.80296 4.3609 2.06897C4.355 1.68754 4.35692 0.701666 4.36708 0.344543H15.7907C15.8009 0.70181 15.8026 1.68766 15.7969 2.06897ZM1.93644 4.02213C1.77324 4.78383 2.27052 5.83957 3.26635 6.84699C3.87275 7.46027 4.61655 8.00506 5.42623 8.45111C4.86357 6.95698 4.5628 5.2731 4.43465 3.66067C3.87037 3.29105 3.18532 3.10445 2.66022 3.22723C2.26239 3.32022 2.03233 3.57248 1.93644 4.02213ZM14.7314 8.45131C15.5412 8.0051 16.2849 7.45999 16.8913 6.84699C17.8871 5.83989 18.3844 4.78415 18.2212 4.02233C18.1255 3.5727 17.8953 3.32042 17.4974 3.22743C16.9722 3.10482 16.2873 3.29142 15.723 3.66087C15.595 5.27326 15.2944 6.9573 14.7314 8.45131ZM14.286 17.0188H5.87067V18.7533H14.286V17.0188Z" fill="black"/>
<path fill-rule="evenodd" clip-rule="evenodd" d="M15.7969 2.06897C16.4631 1.80296 17.1707 1.71091 17.7834 1.85445C18.6897 2.06553 19.3047 2.72534 19.5159 3.71043C19.7915 4.99687 19.185 6.47155 17.8079 7.86383C16.723 8.96047 15.2673 9.87287 13.7303 10.4362C13.0937 11.3874 12.2782 12.1538 11.2438 12.6197C11.3944 13.2032 11.9236 15.2049 13.203 16.2393H6.95466C8.23375 15.2047 8.76311 13.2032 8.91394 12.6197C7.87953 12.1538 7.06428 11.3876 6.42737 10.4365C4.89026 9.87303 3.43471 8.96063 2.34977 7.86399C0.972885 6.47179 0.366192 4.99695 0.641775 3.71059C0.852706 2.72535 1.46808 2.06554 2.37436 1.85445C2.98724 1.71091 3.69469 1.80296 4.3609 2.06897C4.355 1.68754 4.35692 0.701666 4.36708 0.344543H15.7907C15.8009 0.70181 15.8026 1.68766 15.7969 2.06897ZM1.93644 4.02213C1.77324 4.78383 2.27052 5.83957 3.26635 6.84699C3.87275 7.46027 4.61655 8.00506 5.42623 8.45111C4.86357 6.95698 4.5628 5.2731 4.43465 3.66067C3.87037 3.29105 3.18532 3.10445 2.66022 3.22723C2.26239 3.32022 2.03233 3.57248 1.93644 4.02213ZM14.7314 8.45131C15.5412 8.0051 16.2849 7.45999 16.8913 6.84699C17.8871 5.83989 18.3844 4.78415 18.2212 4.02233C18.1255 3.5727 17.8953 3.32042 17.4974 3.22743C16.9722 3.10482 16.2873 3.29142 15.723 3.66087C15.595 5.27326 15.2944 6.9573 14.7314 8.45131ZM14.286 17.0188H5.87067V18.7533H14.286V17.0188Z" fill="#BBBBBB"/>
</svg>
