<svg width="20" height="19" viewBox="0 0 20 19" fill="none" xmlns="http://www.w3.org/2000/svg">
<path fill-rule="evenodd" clip-rule="evenodd" d="M15.7964 2.06897C16.4626 1.80296 17.1702 1.71091 17.7829 1.85445C18.6892 2.06553 19.3042 2.72534 19.5154 3.71043C19.791 4.99687 19.1845 6.47155 17.8074 7.86383C16.7225 8.96047 15.2668 9.87287 13.7298 10.4362C13.0932 11.3874 12.2777 12.1538 11.2433 12.6197C11.3939 13.2032 11.9232 15.2049 13.2025 16.2393H6.95417C8.23326 15.2047 8.76262 13.2032 8.91345 12.6197C7.87904 12.1538 7.06379 11.3876 6.42688 10.4365C4.88977 9.87303 3.43422 8.96063 2.34929 7.86399C0.972397 6.47179 0.365704 4.99695 0.641287 3.71059C0.852218 2.72535 1.46759 2.06554 2.37387 1.85445C2.98675 1.71091 3.69421 1.80296 4.36041 2.06897C4.35452 1.68754 4.35643 0.701666 4.36659 0.344543H15.7902C15.8004 0.70181 15.8021 1.68766 15.7964 2.06897ZM1.93595 4.02213C1.77276 4.78383 2.27003 5.83957 3.26586 6.84699C3.87226 7.46027 4.61606 8.00506 5.42574 8.45111C4.86308 6.95698 4.56231 5.2731 4.43417 3.66067C3.86989 3.29105 3.18483 3.10445 2.65973 3.22723C2.26191 3.32022 2.03184 3.57248 1.93595 4.02213ZM14.7309 8.45131C15.5407 8.0051 16.2844 7.45999 16.8908 6.84699C17.8866 5.83989 18.3839 4.78415 18.2207 4.02233C18.125 3.5727 17.8948 3.32042 17.4969 3.22743C16.9717 3.10482 16.2868 3.29142 15.7225 3.66087C15.5945 5.27326 15.2939 6.9573 14.7309 8.45131ZM14.2855 17.0188H5.87018V18.7533H14.2855V17.0188Z" fill="black"/>
<path fill-rule="evenodd" clip-rule="evenodd" d="M15.7964 2.06897C16.4626 1.80296 17.1702 1.71091 17.7829 1.85445C18.6892 2.06553 19.3042 2.72534 19.5154 3.71043C19.791 4.99687 19.1845 6.47155 17.8074 7.86383C16.7225 8.96047 15.2668 9.87287 13.7298 10.4362C13.0932 11.3874 12.2777 12.1538 11.2433 12.6197C11.3939 13.2032 11.9232 15.2049 13.2025 16.2393H6.95417C8.23326 15.2047 8.76262 13.2032 8.91345 12.6197C7.87904 12.1538 7.06379 11.3876 6.42688 10.4365C4.88977 9.87303 3.43422 8.96063 2.34929 7.86399C0.972397 6.47179 0.365704 4.99695 0.641287 3.71059C0.852218 2.72535 1.46759 2.06554 2.37387 1.85445C2.98675 1.71091 3.69421 1.80296 4.36041 2.06897C4.35452 1.68754 4.35643 0.701666 4.36659 0.344543H15.7902C15.8004 0.70181 15.8021 1.68766 15.7964 2.06897ZM1.93595 4.02213C1.77276 4.78383 2.27003 5.83957 3.26586 6.84699C3.87226 7.46027 4.61606 8.00506 5.42574 8.45111C4.86308 6.95698 4.56231 5.2731 4.43417 3.66067C3.86989 3.29105 3.18483 3.10445 2.65973 3.22723C2.26191 3.32022 2.03184 3.57248 1.93595 4.02213ZM14.7309 8.45131C15.5407 8.0051 16.2844 7.45999 16.8908 6.84699C17.8866 5.83989 18.3839 4.78415 18.2207 4.02233C18.125 3.5727 17.8948 3.32042 17.4969 3.22743C16.9717 3.10482 16.2868 3.29142 15.7225 3.66087C15.5945 5.27326 15.2939 6.9573 14.7309 8.45131ZM14.2855 17.0188H5.87018V18.7533H14.2855V17.0188Z" fill="#3300FF"/>
</svg>
