<svg width="18" height="18" viewBox="0 0 18 18" fill="none" xmlns="http://www.w3.org/2000/svg">
<path d="M8.43101 0.975323C8.6101 0.431729 9.3899 0.431728 9.56899 0.975322L11.2835 6.17913C11.3636 6.42223 11.5933 6.58682 11.8525 6.58682H17.4006C17.9801 6.58682 18.2211 7.31822 17.7522 7.65418L13.2637 10.8703C13.054 11.0206 12.9663 11.2869 13.0464 11.53L14.7608 16.7338C14.9399 17.2774 14.3091 17.7294 13.8402 17.3934L9.35166 14.1773C9.14197 14.0271 8.85803 14.0271 8.64834 14.1773L4.15981 17.3934C3.69094 17.7294 3.06007 17.2774 3.23916 16.7338L4.95363 11.53C5.03372 11.2869 4.94598 11.0206 4.73629 10.8703L0.247765 7.65418C-0.221112 7.31822 0.0198585 6.58682 0.599422 6.58682H6.14755C6.40674 6.58682 6.63645 6.42223 6.71654 6.17913L8.43101 0.975323Z" fill="#3300FF"/>
</svg>
